# xmcd
#
# Track frame offsets: 
#        150
#        11360
#        23257
#        33382
#        46200
#        55015
#        67167
#        78260
#        89270
#        101427
#
# Disc length: 1468 seconds
#
# Revision: 0
# Processed by: cddbd v1.4PL0 Copyright (c) Steve Scherf et al.
# Submitted via: ExactAudioCopy v0.90b3
#
DISCID=6805ba0a
DTITLE=George Jones - Life Turned Her That Way
DYEAR=1900
DGENRE=Country
TTITLE0=Life Turned Her That Way
TTITLE1=My Favorites Lies
TTITLE2=Your Angel Steps Out Of Heaven
TTITLE3=Brothers In A Bottle
TTITLE4=Rollin' In My Sweet Baby's Arms
TTITLE5=Talk To Me Lonesome Heart
TTITLE6=Say It's Not You
TTITLE7=Sometimes You Just Can't Win
TTITLE8=When My Heart Hurts No More
TTITLE9=Dixieland For Me
EXTD=
EXTT0=
EXTT1=
EXTT2=
EXTT3=
EXTT4=
EXTT5=
EXTT6=
EXTT7=
EXTT8=
EXTT9=
PLAYORDER=
